<svg xmlns="http://www.w3.org/2000/svg" viewBox="0 0 1155.84 578.42"><defs><style>.cls-1{isolation:isolate;}.cls-2,.cls-3{fill:#78d1f6;}.cls-3{opacity:0.1;}.cls-3,.cls-5,.cls-7{mix-blend-mode:multiply;}.cls-4,.cls-5{fill:#b6e4fa;}.cls-5{opacity:0.15;}.cls-6,.cls-7{fill:#d7f0fc;}.cls-7{opacity:0.3;}.cls-8{fill:#fff;} #Layer_1{opacity:0.5}</style></defs><title>Artboard 1</title><g class="cls-1"><g id="Layer_1" data-name="Layer 1"><path class="cls-2" d="M1150.18,13.42a101.77,101.77,0,0,0-87.33,49.45,77.15,77.15,0,0,0-107.53,68.37,80.08,80.08,0,0,0-86,56,74.84,74.84,0,0,0-102,32.48,132.7,132.7,0,0,0-198,61.86,63.72,63.72,0,0,0-81.68,5.89,61.69,61.69,0,0,0-98.75,4.42,98,98,0,0,0-88.5-7.46A113.44,113.44,0,0,0,153.6,206.37a33.94,33.94,0,0,0-33.07-26.31,34.35,34.35,0,0,0-9,1.2A98.13,98.13,0,0,0-1.36,119v451.4h1157.2V13.59C1154,13.47,1152.08,13.42,1150.18,13.42Z"/><path class="cls-3" d="M1155.84,51.4v519H-1.36V159.89a96.07,96.07,0,0,1,20.83-2.29c42.34,0,78.4,27.65,92.1,66.34a33.54,33.54,0,0,1,9-1.24c16.13,0,29.61,11.58,33.07,27.07a110.64,110.64,0,0,1,37.14-6.43c52.59,0,96.81,36.85,109.64,86.82a95.56,95.56,0,0,1,88.5,7.67,60.66,60.66,0,0,1,98.75-4.54,62.35,62.35,0,0,1,81.68-6.07c19.27-50.93,67.35-87.05,123.65-87.05a129.5,129.5,0,0,1,74.31,23.4c12.3-25.17,37.62-42.46,66.87-42.46a72.62,72.62,0,0,1,35.16,9c10.09-33.74,40.61-58.26,76.7-58.26a79.59,79.59,0,0,1,9.32.57c1.34-42.63,35.34-76.78,77.09-76.78a75.1,75.1,0,0,1,30.44,6.43c17.8-30.48,50.25-50.89,87.33-50.89C1152.08,51.22,1154,51.27,1155.84,51.4Z"/><path class="cls-4" d="M1155.84,130.11V570.42H-1.36v-379a141.09,141.09,0,0,1,14.7-.12A141.59,141.59,0,0,1,128,258.56a44.38,44.38,0,0,1,63.22,50.61,123,123,0,0,1,78.87,61.29A80,80,0,0,1,369.85,386a132.34,132.34,0,0,1,229.66-17.09A96.62,96.62,0,0,1,715,349.58,154.59,154.59,0,0,1,852.36,240.82a59.4,59.4,0,0,1,87.21-49,183.18,183.18,0,0,1,216.27-61.72Z"/><path class="cls-5" d="M1155.84,202.63V570.42H-1.36V264a141.07,141.07,0,0,1,14.7-.13A141.63,141.63,0,0,1,128,331.08a44.38,44.38,0,0,1,63.22,50.61A123,123,0,0,1,270.07,443a80,80,0,0,1,99.78,15.51,132.34,132.34,0,0,1,229.66-17.09A96.62,96.62,0,0,1,715,422.1,154.59,154.59,0,0,1,852.36,313.34a59.4,59.4,0,0,1,87.21-49,183.18,183.18,0,0,1,216.27-61.72Z"/><path class="cls-6" d="M1155.84,318V570.42H-1.36V309.12a96.52,96.52,0,0,1,80.65,76.35,187.6,187.6,0,0,1,169.1,53.14,155.08,155.08,0,0,1,245.24,25.61A99.36,99.36,0,0,1,574,483.79a217.76,217.76,0,0,1,270.1-108.46,65.55,65.55,0,0,1,102.79-17A186,186,0,0,1,1155.84,318Z"/><path class="cls-7" d="M1155.84,382.78V570.42H-1.36V373.93a96.49,96.49,0,0,1,80.65,76.34A189.29,189.29,0,0,1,114.36,447a186.87,186.87,0,0,1,134,56.42A155.08,155.08,0,0,1,493.63,529,99.36,99.36,0,0,1,574,548.59a217.76,217.76,0,0,1,270.1-108.45,65.55,65.55,0,0,1,102.79-17,186,186,0,0,1,208.93-40.34Z"/><path class="cls-8" d="M444.83,570.42H-1.36V435.83A122,122,0,0,1,136.1,504.74a83.45,83.45,0,0,1,68.12,11A85.63,85.63,0,0,1,364,525.37a67.92,67.92,0,0,1,80.81,45Z"/><path class="cls-8" d="M1155.84,373.59V570.42H673.12a56,56,0,0,1,75-27.9,97.14,97.14,0,0,1,161.49-23,86.2,86.2,0,0,1,61-25.17,87.88,87.88,0,0,1,9.52.54,149.2,149.2,0,0,1,175.74-121.32Z"/></g></g></svg>