<?xml version="1.0" encoding="utf-8"?>
<!-- Generator: Adobe Illustrator 22.0.1, SVG Export Plug-In . SVG Version: 6.00 Build 0)  -->
<svg version="1.2" baseProfile="tiny" xmlns="http://www.w3.org/2000/svg" xmlns:xlink="http://www.w3.org/1999/xlink" x="0px"
	 y="0px" viewBox="0 0 46.1 48.9" xml:space="preserve">
<g id="js">
	<path fill="#5C5B5B" d="M26.4,18.9c-1.1,0-2-0.9-2-2v-16H3.7c-1.1,0-2,0.9-2,2V46c0,1.1,0.9,2,2,2h37.5c1.1,0,2-0.9,2-2V18.9H26.4z
		 M20.2,34.5c0,1.6-0.4,2.9-1.3,3.7c-0.8,0.8-1.9,1.2-3.2,1.2c-1.6,0-3.1-0.6-4.3-1.9l1.6-2.2c0.8,0.9,1.7,1.3,2.6,1.3
		c0.4,0,0.8-0.2,1.1-0.5c0.3-0.3,0.5-0.8,0.5-1.5v-6.4h-4.1v-2.6h7.1V34.5z M32,38.3c-0.9,0.8-2.1,1.1-3.6,1.1
		c-2.2,0-4.1-0.8-5.9-2.4l1.8-2.2c1.5,1.3,2.8,1.9,4.1,1.9c0.6,0,1-0.1,1.3-0.4c0.3-0.2,0.5-0.6,0.5-1s-0.2-0.7-0.5-1
		c-0.3-0.2-1-0.5-2-0.7c-1.6-0.4-2.8-0.9-3.5-1.5c-0.7-0.6-1.1-1.6-1.1-2.9s0.5-2.3,1.4-3s2.1-1.1,3.5-1.1c0.9,0,1.8,0.2,2.7,0.5
		c0.9,0.3,1.7,0.8,2.4,1.3l-1.5,2.2c-1.2-0.9-2.4-1.4-3.7-1.4c-0.5,0-0.9,0.1-1.2,0.4c-0.3,0.2-0.4,0.6-0.4,1s0.2,0.7,0.5,0.9
		s1.2,0.5,2.5,0.8c1.3,0.3,2.3,0.8,3,1.4c0.7,0.6,1.1,1.6,1.1,2.8C33.4,36.5,32.9,37.5,32,38.3z"/>
	<path fill="#5C5B5B" d="M39.8,15L28.3,4v11H39.8z"/>
</g>
<g id="img" display="none">
	<path display="inline" fill="none" d="M-2.6-2.1h53v53h-53V-2.1z"/>
	<path display="inline" d="M46,33.3V6.7c0-2.4-2-4.4-4.4-4.4H15.1c-2.4,0-4.4,2-4.4,4.4v26.5c0,2.4,2,4.4,4.4,4.4h26.5
		C44,37.7,46,35.7,46,33.3z M21.7,24.4l4.5,6l6.6-8.2l8.8,11H15.1L21.7,24.4z M1.8,11.2v30.9c0,2.4,2,4.4,4.4,4.4h30.9v-4.4H6.2
		V11.2H1.8z"/>
</g>
</svg>
