<svg id="Layer_4" data-name="Layer 4" xmlns="http://www.w3.org/2000/svg" viewBox="0 0 39.08 43.78"><defs><style>.cls-1{fill:#5C5B5B}</style></defs><title>icon-server</title><polygon class="cls-1" points="0 35.67 26.35 43.77 26.35 11.52 0 3.43 0 35.67"/><polygon class="cls-1" points="37.04 7.2 37.07 7.19 11.81 0 2.11 2.44 27.13 10.13 37.04 7.2"/><path class="cls-1" d="M31.12,41.09l11.18-3.3V10.46L31.12,13.77Zm6.12-4.76A1.37,1.37,0,1,1,38.31,35,1.23,1.23,0,0,1,37.24,36.33ZM32.76,17.66,41,15.44V19l-8.21,2.22Zm0,4.61L41,20.05v3.58l-8.21,2.22Zm0,4.61L41,24.66v3.58l-8.21,2.22Z" transform="translate(-3.22 -2.25)"/><polygon class="cls-1" points="39.08 36.92 27.91 40.23 27.91 43.78 39.08 40.47 39.08 36.92"/></svg>