<svg id="Capa_1" data-name="Capa 1" xmlns="http://www.w3.org/2000/svg" viewBox="0 0 512 512"><defs><style>.cls-1{fill:#6f6f6f}.cls-2{fill:#454545}.cls-3{fill:#e2e1e0}.cls-4{fill:#d3d2d1}.cls-5{fill:#c2c2c2}.cls-7{fill:#ededed}.cls-8{fill:#dddcdb}</style></defs><path class="cls-1" d="M35.92 303.84l-6.91 7a6.44 6.44 0 0 0 0 9.12l45 44.75a6.46 6.46 0 0 0 9.13 0l39.15-39.37z"/><path class="cls-2" d="M61 351.7l13 13a6.45 6.45 0 0 0 9.12 0l39.15-39.37-27.87-6.91C59.68 353.33 62.05 351.08 61 351.7z"/><path class="cls-1" d="M148.55 438.14l45 44.75a6.46 6.46 0 0 0 9.13 0l7.29-7.34-21.97-86.3L148.52 429a6.46 6.46 0 0 0 .03 9.14z"/><path class="cls-3" d="M73.63 287.14l-16.95-4.2c-4.81 4.84-9.79 9.87-22 22.16l86.4 21.42 22-22.15-69.45-17.22z"/><path class="cls-4" d="M100.19 312.58l-6.99 7.03 27.87 6.91 22.02-22.15-27.87-6.91-15.03 15.12z"/><path class="cls-3" d="M208.35 477.17l21.91-22.05-12.79-50.31.1-.11-9.14-35.96-22.02 22.15 21.94 86.28z"/><path class="cls-2" d="M148.55 438.14l13.13 13.06c.67-1.41-1.33.8 33.43-34.16l-7.06-27.79L148.52 429a6.45 6.45 0 0 0 .03 9.14z"/><path class="cls-4" d="M200.81 411.3l14.69-14.77-7.07-27.79-22.02 22.15 7.06 27.79 7.34-7.38z"/><path class="cls-5" d="M469 41.74c18.07 18-26.49 92.1-99.53 165.6l-200.3 201.49c-4.8 4.83-11.85 5.6-15.75 1.72l-51.35-51c-3.9-3.88-3.17-10.94 1.63-15.77l200.19-201.43C377 68.82 450.91 23.77 469 41.74z"/><path d="M348.43 192.9C132 410.67 146.77 397.11 141.11 398.31l12.31 12.24c3.9 3.88 11 3.11 15.75-1.72l200.29-201.49c73-73.5 117.6-147.63 99.53-165.6-3.6-3.58-9.43-4.65-17-3.5.76 28.14-40.93 91.63-103.56 154.66z" fill="#a89e9e"/><path class="cls-7" d="M30.82 160.59l153.93 102.04L304.7 141.95 70.83 120.34l-40.01 40.25z"/><path class="cls-4" d="M163.17 248.32l21.58 14.31L304.7 141.95l-32.78-3.03-108.75 109.4z"/><path class="cls-8" d="M304.7 141.95l-25.19 25.34-233.87-21.61 25.19-25.34 233.87 21.61z"/><path class="cls-5" d="M246.74 164.26l32.77 3.03 25.19-25.34-32.78-3.03-25.18 25.34z"/><path class="cls-1" d="M11.29 143.51a12.94 12.94 0 0 0 .06 18.3 12.94 12.94 0 0 0 18.31-.05L100 91a13 13 0 0 0 0-18.31 13 13 0 0 0-18.31.05z"/><path class="cls-2" d="M89.87 83.38l-70.32 70.74a12.89 12.89 0 0 1-10.94 3.69 12.94 12.94 0 0 0 21.05 3.95L100 91a13 13 0 0 0-7.43-21.94 12.93 12.93 0 0 1-2.7 14.32z"/><path class="cls-7" d="M352.96 480.81L250.01 327.5l119.96-120.67 23 233.74-40.01 40.24z"/><path class="cls-5" d="M264.18 348.6l108.95-109.61-3.16-32.16L250.01 327.5l14.17 21.1z"/><path class="cls-8" d="M369.97 206.83l-25.19 25.34 23 233.74 25.19-25.34-23-233.74z"/><path class="cls-5" d="M369.97 206.83l-25.19 25.34 3.17 32.16 25.18-25.34-3.16-32.16z"/><path class="cls-1" d="M230.07 264.23l18.56 18.45a7.39 7.39 0 0 1 .16 10.45L142.68 399.88l-29.17-29 106.11-106.75a7.39 7.39 0 0 1 10.45.1z"/><path class="cls-2" d="M127.61 384.9l15.07 15 106.11-106.77a7.39 7.39 0 0 0-.16-10.45L237.88 272c-.64 3.46 6.55-4.62-110.27 112.9z"/><ellipse cx="355.41" cy="155.99" rx="62.13" ry="20.92" transform="rotate(-45.17 355.42 155.988)" fill="#5c92e0"/><path d="M351.19 156.27C337 170.6 322 181 310.42 185.54c-8.35 28.09 25.44 19.81 59.84-14.8 36.24-36.46 42.58-71 11.1-58.77-3.55 11.95-14.5 28.54-30.17 44.3z" fill="#3d7bc4"/><path class="cls-1" d="M351.8 482a13 13 0 0 0 .05 18.31 12.94 12.94 0 0 0 18.31-.06l70.33-70.74a13 13 0 0 0-.06-18.31 13 13 0 0 0-18.31.05z"/><path class="cls-2" d="M430.79 421.86l-70.32 70.74a12.94 12.94 0 0 1-11.38 3.63 12.94 12.94 0 0 0 21.07 4l70.33-70.74a12.94 12.94 0 0 0-7-21.88 13 13 0 0 1-2.7 14.25z"/><path d="M20.32 173.2a20.32 20.32 0 0 0 10.81-3.14l74.23 49.21a7.5 7.5 0 0 0 8.29-12.51l-71.28-47.25 5.88-5.91 214.12 19.78-79.08 79.55L134 220.25a7.5 7.5 0 1 0-8.29 12.51l46.79 31-32.3 32.49-69.41-17.19 16.92-17a7.5 7.5 0 0 0-10.64-10.58l-53.94 54.23a14 14 0 0 0 .06 19.74l45 44.74a13.89 13.89 0 0 0 9.89 4.06c7.07 0 9.89-4.15 16.88-11.19 1.35 1.84 53.18 53.38 55.07 54.68l-7.06 7.1a14 14 0 0 0 .06 19.74l45 44.75a14 14 0 0 0 19.74-.06L261.72 435a7.5 7.5 0 0 0-5.34-12.79c-4 0-3.92.82-22.22 19.24l-17.71-69.65 32.21-32.41 94.73 141.07a20.44 20.44 0 0 0 31.87 25.18l70.33-70.74a20.46 20.46 0 0 0 4.21-22.61l29.52-29.69a7.51 7.51 0 0 0-10.65-10.6l-29.5 29.68a20.44 20.44 0 0 0-22.59 4.36l-17.92 18-21.1-214.39c34.43-35 63.48-71.13 82-102 18-30 24.31-51.75 18.74-64.82L509 12.05a7.5 7.5 0 1 0-10.66-10.58l-30.68 30.86a26.86 26.86 0 0 0-10.57-1.92c-31.07.09-93.38 41.68-155.8 103.83L87.16 114.45l17.92-18a20.4 20.4 0 0 0 4.23-22.62l29.5-29.68a7.51 7.51 0 0 0-5.34-12.79c-4.15 0-2.76-.35-34.8 31.89a20.4 20.4 0 0 0-22.59 4.36L5.75 138.33c-12.85 12.93-3.52 34.93 14.57 34.87zM62 139.8l11.47-11.54L287.56 148l-11.47 11.54zm56.22 178.62l-69.45-17.21 9.69-9.75 69.42 17.21zM78 358.81l-43.49-43.27 1.93-1.93 69.42 17.21zm76.32 75.87l27.82-28L199.81 476l-1.92 2zm57.78 28.93l-17.63-69.32 9.69-9.75 17.63 69.32zm126.55-214.74l21.1 214.38-5.88 5.91-94.42-140.61zm92.42 166.18a5.36 5.36 0 0 1 3.85 1.58 5.46 5.46 0 0 1 0 7.7c-75.59 76-70.95 72.34-74.17 72.35a5.45 5.45 0 0 1-3.88-9.28l1.17-1.18c74.89-75.31 69.77-71.16 73.03-71.17zm-57.6 34.39l-21.1-214.37 11.47-11.54 21.09 214.38zm90-402.26c3.48 3.47 3.86 18.48-16.75 52.78-35.25 58.64-80.43 99.79-202.27 222.36-81.71 82.2-83.52 85.48-86 83l-6.12-6.09 100.86-101.39a14.81 14.81 0 0 0-.06-20.93L235 258.9a14.69 14.69 0 0 0-10.48-4.31 14.7 14.7 0 0 0-10.44 4.41l-65 65.37a7.5 7.5 0 0 0 10.64 10.58l64.84-65.22 17.82 17.72-100.65 101.23L123.9 371l17.89-18a7.51 7.51 0 0 0-10.65-10.58l-17.88 18c-6.77-6.73-6.54-6.15-6.4-7.51.28-2.68-1.24-.52 41-43l40.39-40.64c1.36-.77 121.85-121.86 122.76-123.47C390.91 65.94 453.19 37 463.48 47.18zM16.39 148.91C92 72.83 87.35 76.57 90.56 76.56a5.45 5.45 0 0 1 3.88 9.28c-76.1 76.56-70.89 72.34-74.17 72.35a5.45 5.45 0 0 1-3.88-9.28z"/><path d="M306.11 205.49c2.12 2.11 6 4.62 12.33 4.6 24.89-.07 69.16-39.32 85-71.4 12.41-25.19 1.76-36.6-11.43-36.57-35.52.11-109.82 79.6-85.9 103.37zM392 117.13a4.91 4.91 0 0 1 1.68.21c2.05 3.21-4.07 23.17-29 48.23-19.23 19.34-37.86 29.49-46.32 29.51a5 5 0 0 1-1.69-.21c-2.08-3.26 4.18-23.29 29-48.23 19.25-19.34 37.87-29.49 46.33-29.51z"/></svg>